<?xml version="1.0" standalone="no"?>
<!DOCTYPE svg PUBLIC "-//W3C//DTD SVG 20010904//EN"
 "http://www.w3.org/TR/2001/REC-SVG-20010904/DTD/svg10.dtd">
<svg version="1.0" xmlns="http://www.w3.org/2000/svg"
 width="300.000000pt" height="291.000000pt" viewBox="0 0 300.000000 291.000000"
 preserveAspectRatio="xMidYMid meet">
<metadata>
Created by potrace 1.10, written by Peter Selinger 2001-2011
</metadata>
<g transform="translate(0.000000,291.000000) scale(0.100000,-0.100000)"
fill="#000000" stroke="none">
<path d="M1476 2654 c-4 -33 -9 -80 -12 -106 -4 -46 -4 -48 21 -48 21 0 25 5
25 30 0 29 1 30 43 24 59 -8 97 21 97 76 0 50 -25 68 -107 76 l-61 7 -6 -59z
m101 10 c51 -14 33 -74 -22 -74 -34 0 -35 1 -35 40 0 42 8 47 57 34z"/>
<path d="M1255 2642 c-65 -13 -89 -102 -39 -141 15 -12 39 -21 55 -21 36 0 79
19 79 36 0 19 -21 22 -49 8 -17 -9 -30 -10 -43 -3 -32 17 -20 26 42 33 57 7
61 9 54 29 -14 46 -51 68 -99 59z m39 -38 c26 -10 18 -21 -20 -29 -42 -7 -52
-2 -34 20 13 16 29 19 54 9z"/>
<path d="M1695 2627 c-23 -80 -33 -142 -22 -149 24 -15 36 -7 43 30 10 54 22
72 48 72 20 0 36 16 36 37 0 3 -13 3 -30 1 -16 -3 -30 -1 -30 3 0 12 -41 18
-45 6z"/>
<path d="M1128 2613 c-15 -4 -18 -16 -18 -66 l-1 -62 -37 43 c-35 40 -64 53
-76 34 -3 -5 21 -36 52 -70 47 -51 61 -61 80 -56 19 6 22 13 22 64 0 32 3 72
6 89 6 31 4 33 -28 24z"/>
<path d="M900 2595 c-16 -19 -5 -47 16 -43 27 5 42 37 24 48 -20 13 -26 12
-40 -5z"/>
<path d="M1830 2577 c-14 -7 -31 -25 -38 -39 -39 -83 78 -159 143 -93 42 41
30 102 -25 130 -35 18 -48 18 -80 2z m74 -46 c23 -25 6 -71 -27 -71 -44 0 -62
43 -31 74 20 21 37 20 58 -3z"/>
<path d="M933 2532 c-10 -6 -3 -26 24 -78 20 -38 37 -70 39 -72 1 -2 11 1 22
7 19 10 18 13 -17 81 -36 69 -44 77 -68 62z"/>
<path d="M802 2497 c-7 -8 -7 -18 -2 -27 6 -9 5 -17 -2 -21 -15 -10 0 -29 22
-29 10 0 21 -8 24 -18 10 -31 45 -62 70 -62 13 0 31 9 42 21 15 17 16 22 4 29
-9 5 -20 4 -28 -3 -11 -9 -17 -7 -29 8 -31 41 -35 55 -18 61 17 7 18 13 6 33
-8 13 -12 13 -26 1 -15 -12 -18 -12 -26 3 -12 20 -23 22 -37 4z"/>
<path d="M1981 2474 c-12 -15 -21 -38 -21 -51 0 -30 42 -73 70 -73 29 0 20
-24 -9 -28 -15 -2 -34 6 -51 23 -33 32 -68 29 -51 -4 14 -25 72 -61 99 -61 38
0 52 12 98 82 36 56 43 73 33 84 -7 8 -17 13 -22 11 -6 -2 -20 7 -33 20 -33
33 -86 31 -113 -3z m97 -26 c30 -30 0 -75 -42 -64 -29 7 -40 31 -26 57 12 21
50 25 68 7z"/>
<path d="M697 2474 c-10 -10 -9 -42 2 -48 18 -11 42 6 39 28 -3 21 -28 33 -41
20z"/>
<path d="M741 2407 c-8 -11 0 -27 35 -73 44 -56 58 -64 78 -44 9 9 -78 130
-93 130 -5 0 -14 -6 -20 -13z"/>
<path d="M2146 2338 c-47 -57 -49 -61 -31 -74 16 -12 22 -9 56 29 34 38 39 41
59 29 17 -10 25 -10 36 -1 21 17 17 28 -11 35 -14 3 -25 12 -25 19 0 10 -24
28 -33 24 -1 0 -24 -27 -51 -61z"/>
<path d="M622 2354 c-7 -8 -10 -20 -5 -27 4 -6 8 -21 8 -32 0 -13 6 -20 18
-19 9 1 32 -13 51 -32 41 -41 56 -42 93 -9 24 21 26 26 13 35 -19 13 -30 13
-30 0 0 -19 -26 -10 -54 19 -26 27 -26 30 -10 39 15 9 16 12 5 26 -13 15 -15
15 -32 0 -17 -15 -19 -15 -25 0 -8 20 -15 20 -32 0z"/>
<path d="M2283 2294 c-4 -11 2 -23 20 -36 15 -11 27 -28 27 -39 0 -26 -9 -24
-47 13 -29 28 -35 30 -58 20 -18 -8 -25 -19 -25 -40 0 -29 26 -62 49 -62 7 0
10 -4 7 -9 -3 -4 1 -17 9 -27 14 -18 17 -16 66 33 55 58 57 75 15 121 -33 37
-55 46 -63 26z m3 -95 c15 -17 16 -22 4 -29 -19 -12 -50 6 -50 30 0 26 22 25
46 -1z"/>
<path d="M569 2235 c-77 -42 -44 -155 44 -155 35 0 87 51 87 86 0 37 -32 27
-44 -13 -7 -21 -42 -41 -53 -29 -3 3 11 26 32 51 20 25 36 47 34 49 -12 10
-50 26 -61 26 -7 -1 -25 -7 -39 -15z m51 -32 c-1 -5 -12 -21 -25 -38 -20 -24
-25 -26 -30 -13 -9 23 12 58 35 58 11 0 20 -3 20 -7z"/>
<path d="M2370 2129 c-70 -42 -74 -47 -61 -67 7 -11 18 -9 58 12 43 21 53 23
68 12 24 -17 14 -42 -26 -64 -59 -33 -61 -35 -47 -55 13 -17 16 -17 61 8 38
22 50 25 62 15 28 -23 17 -49 -30 -72 -45 -22 -52 -32 -37 -56 7 -10 20 -6 58
14 82 45 94 76 45 124 -17 18 -28 40 -28 56 0 16 -9 35 -20 44 -11 8 -18 20
-16 26 2 5 -2 17 -9 25 -12 14 -20 12 -78 -22z"/>
<path d="M474 2085 c-30 -12 -44 -32 -44 -61 0 -8 -9 -23 -21 -35 l-20 -20 78
-41 c43 -23 87 -47 97 -54 16 -11 21 -11 32 4 19 24 17 28 -16 42 -36 15 -36
14 -10 40 60 60 -17 159 -96 125z m57 -45 c34 -19 19 -80 -20 -80 -20 0 -51
30 -51 50 0 35 34 49 71 30z"/>
<path d="M354 1865 c-10 -25 -11 -41 -5 -53 7 -14 5 -23 -10 -35 -11 -10 -19
-29 -19 -46 0 -17 -4 -33 -10 -36 -5 -3 -10 -14 -10 -24 0 -14 17 -22 76 -38
l76 -20 8 21 c7 19 2 23 -43 36 -59 18 -80 42 -56 66 15 14 21 14 67 1 53 -16
62 -14 62 14 0 13 -14 22 -46 31 -57 16 -76 40 -52 64 15 15 20 15 63 0 52
-17 65 -14 65 13 0 20 -62 41 -120 41 -26 0 -33 -6 -46 -35z"/>
<path d="M2498 1852 c-67 -16 -76 -24 -59 -50 6 -10 17 -11 54 -1 54 13 77 7
77 -19 0 -27 -17 -38 -67 -47 -37 -6 -43 -10 -43 -32 0 -21 3 -24 23 -19 72
20 95 19 107 -5 16 -29 -3 -44 -65 -54 -44 -6 -53 -17 -37 -43 11 -17 122 11
140 35 17 24 15 60 -6 81 -13 13 -17 29 -14 56 3 25 -1 43 -12 55 -11 12 -13
20 -6 23 14 4 2 38 -14 37 -6 -1 -41 -9 -78 -17z"/>
<path d="M344 1600 c-56 -23 -72 -103 -29 -145 31 -32 75 -32 112 -1 71 61 2
182 -83 146z m70 -62 c17 -28 -4 -53 -45 -53 -28 0 -35 4 -37 23 -2 13 2 30 9
38 16 19 59 14 73 -8z"/>
<path d="M2517 1540 c-32 -25 -43 -72 -27 -111 10 -23 15 -27 27 -18 8 7 11
20 7 31 -8 26 3 68 19 68 8 0 11 -17 9 -60 -3 -49 -1 -60 12 -60 51 0 94 55
82 105 -16 61 -80 84 -129 45z m93 -65 c0 -12 -7 -28 -15 -35 -13 -11 -15 -6
-15 35 0 41 2 46 15 35 8 -7 15 -23 15 -35z"/>
<path d="M402 1408 c-9 -9 -9 -15 2 -27 29 -32 30 -68 2 -95 -32 -33 -60 -33
-91 -1 -27 26 -31 46 -15 75 7 13 5 21 -6 31 -14 11 -18 10 -30 -6 -34 -46 -5
-137 51 -161 97 -40 186 57 139 153 -21 41 -34 49 -52 31z"/>
<path d="M2480 1372 c0 -6 -3 -17 -6 -26 -5 -12 5 -16 45 -22 54 -7 77 -24 67
-49 -3 -8 -1 -15 3 -15 5 0 17 -3 27 -7 15 -5 16 -2 11 25 -4 19 -2 32 3 32 6
0 10 11 10 24 0 21 -5 24 -63 29 -34 3 -70 9 -80 12 -9 4 -17 3 -17 -3z"/>
<path d="M2434 1176 c-10 -26 4 -48 28 -44 17 2 23 10 23 28 0 18 -6 26 -23
28 -13 2 -25 -3 -28 -12z"/>
<path d="M463 1134 c-3 -8 2 -23 11 -32 15 -15 17 -15 32 0 21 21 11 48 -16
48 -11 0 -23 -7 -27 -16z"/>
<path d="M2357 987 c-14 -22 -13 -25 35 -80 27 -31 44 -57 36 -57 -7 0 -41 9
-74 19 l-62 19 -12 -24 c-12 -21 -9 -28 28 -76 23 -29 54 -68 69 -86 27 -32
28 -32 40 -13 11 18 6 27 -38 80 -28 34 -47 61 -43 61 4 0 38 -9 76 -21 67
-20 70 -20 83 -2 11 15 7 25 -37 80 -27 35 -46 63 -41 63 5 0 37 -10 72 -21
l63 -21 21 20 c16 17 18 22 6 26 -8 2 -51 13 -97 25 -45 12 -89 24 -96 27 -7
3 -20 -6 -29 -19z"/>
<path d="M585 889 c-45 -34 -52 -35 -77 -13 -14 14 -20 14 -33 4 -12 -10 -13
-16 -4 -26 6 -8 18 -14 25 -14 7 0 11 -6 9 -12 -3 -7 -1 -19 4 -27 7 -10 22
-4 72 29 35 24 66 44 68 46 1 1 -3 12 -11 22 -13 20 -14 20 -53 -9z"/>
<path d="M650 824 c0 -9 11 -25 25 -36 22 -17 35 -58 19 -58 -4 0 -24 19 -45
43 l-39 42 -20 -24 c-11 -13 -20 -34 -20 -48 0 -32 51 -83 83 -83 35 0 87 46
87 77 0 34 -28 79 -57 92 -31 14 -33 14 -33 -5z m-3 -86 c28 -26 29 -38 5 -38
-23 0 -42 19 -42 42 0 24 9 23 37 -4z"/>
<path d="M2210 763 c-37 -11 -63 -29 -76 -55 -18 -34 -18 -38 2 -38 9 0 25 11
36 25 12 16 30 25 46 25 26 0 25 -2 -20 -41 -27 -22 -48 -45 -48 -50 0 -16 59
-40 85 -33 60 15 86 102 43 141 -27 24 -47 32 -68 26z m40 -119 c-13 -14 -50
-20 -50 -7 0 4 12 20 28 36 26 27 27 28 30 7 2 -12 -2 -28 -8 -36z"/>
<path d="M739 682 c-43 -38 -45 -85 -5 -119 15 -12 34 -23 42 -23 8 0 13 -4 9
-9 -3 -6 3 -14 12 -20 16 -8 29 4 86 80 65 86 66 89 45 100 -16 9 -23 8 -29
-2 -4 -8 -15 -23 -23 -34 -12 -16 -15 -17 -16 -4 0 21 -28 46 -61 54 -21 5
-34 0 -60 -23z m89 -34 c18 -18 15 -43 -8 -63 -17 -15 -24 -16 -45 -7 -27 12
-31 32 -15 63 12 21 50 25 68 7z"/>
<path d="M2073 663 c-7 -2 -13 -11 -13 -19 0 -8 -10 -14 -24 -14 -30 0 -66
-43 -66 -77 0 -33 51 -83 85 -83 15 0 37 11 52 26 20 20 28 23 34 13 25 -44
34 -50 53 -36 17 12 15 19 -40 105 -33 50 -61 91 -64 91 -3 0 -11 -3 -17 -6z
m24 -89 c12 -19 11 -24 -5 -44 -33 -41 -88 4 -68 56 8 22 55 14 73 -12z"/>
<path d="M902 567 c-30 -32 -29 -87 1 -115 60 -56 146 -24 147 56 0 71 -99
111 -148 59z m98 -32 c24 -29 -13 -82 -49 -70 -43 13 -32 85 13 85 13 0 29 -7
36 -15z"/>
<path d="M1795 519 c-76 -23 -105 -54 -105 -112 0 -87 58 -120 162 -91 35 9
64 18 66 19 4 3 -50 188 -57 196 -3 3 -33 -2 -66 -12z m48 -89 c10 -33 17 -62
17 -64 0 -2 -16 -10 -35 -16 -92 -30 -131 86 -42 124 18 8 35 15 38 15 3 1 13
-26 22 -59z"/>
<path d="M1058 428 c-20 -57 -36 -103 -35 -104 1 -1 11 -4 22 -8 18 -5 24 6
57 96 20 56 35 106 32 110 -3 4 -13 8 -22 8 -12 0 -27 -28 -54 -102z"/>
<path d="M1173 494 c-23 -10 -1 -34 32 -34 20 0 39 -8 51 -21 l19 -22 -40 7
c-22 4 -52 10 -67 13 -26 5 -28 3 -28 -26 0 -76 94 -109 144 -50 28 33 32 59
16 90 -19 35 -88 59 -127 43z m81 -104 c15 -15 -32 -32 -54 -20 -34 18 -25 40
13 33 17 -3 36 -9 41 -13z"/>
<path d="M1343 390 l-41 -80 25 0 c20 0 29 10 50 58 l25 57 19 -62 c17 -55 23
-63 44 -63 l24 0 -29 83 c-24 69 -32 82 -52 85 -20 3 -29 -8 -65 -78z"/>
<path d="M1518 459 c-37 -21 -5 -46 36 -28 17 8 29 8 45 0 34 -18 15 -31 -45
-31 -50 0 -54 -2 -54 -23 0 -60 95 -90 138 -44 29 30 30 89 2 117 -22 22 -92
27 -122 9z m102 -87 c0 -14 -23 -32 -41 -32 -19 0 -42 24 -32 33 9 10 73 9 73
-1z"/>
</g>
</svg>
